<svg id="visual" viewBox="0 0 900 600" width="900" height="600" xmlns="http://www.w3.org/2000/svg" xmlns:xlink="http://www.w3.org/1999/xlink" version="1.1"><rect x="0" y="0" width="900" height="600" fill="#001220"></rect><defs><linearGradient id="grad1_0" x1="33.3%" y1="0%" x2="100%" y2="100%"><stop offset="20%" stop-color="#fbae3c" stop-opacity="1"></stop><stop offset="80%" stop-color="#fbae3c" stop-opacity="1"></stop></linearGradient></defs><defs><linearGradient id="grad1_1" x1="33.3%" y1="0%" x2="100%" y2="100%"><stop offset="20%" stop-color="#fbae3c" stop-opacity="1"></stop><stop offset="80%" stop-color="#cc5867" stop-opacity="1"></stop></linearGradient></defs><defs><linearGradient id="grad1_2" x1="33.3%" y1="0%" x2="100%" y2="100%"><stop offset="20%" stop-color="#593762" stop-opacity="1"></stop><stop offset="80%" stop-color="#cc5867" stop-opacity="1"></stop></linearGradient></defs><defs><linearGradient id="grad1_3" x1="33.3%" y1="0%" x2="100%" y2="100%"><stop offset="20%" stop-color="#593762" stop-opacity="1"></stop><stop offset="80%" stop-color="#001220" stop-opacity="1"></stop></linearGradient></defs><defs><linearGradient id="grad2_0" x1="0%" y1="0%" x2="66.7%" y2="100%"><stop offset="20%" stop-color="#fbae3c" stop-opacity="1"></stop><stop offset="80%" stop-color="#fbae3c" stop-opacity="1"></stop></linearGradient></defs><defs><linearGradient id="grad2_1" x1="0%" y1="0%" x2="66.7%" y2="100%"><stop offset="20%" stop-color="#cc5867" stop-opacity="1"></stop><stop offset="80%" stop-color="#fbae3c" stop-opacity="1"></stop></linearGradient></defs><defs><linearGradient id="grad2_2" x1="0%" y1="0%" x2="66.7%" y2="100%"><stop offset="20%" stop-color="#cc5867" stop-opacity="1"></stop><stop offset="80%" stop-color="#593762" stop-opacity="1"></stop></linearGradient></defs><defs><linearGradient id="grad2_3" x1="0%" y1="0%" x2="66.7%" y2="100%"><stop offset="20%" stop-color="#001220" stop-opacity="1"></stop><stop offset="80%" stop-color="#593762" stop-opacity="1"></stop></linearGradient></defs><g transform="translate(900, 0)"><path d="M0 270.4C-17.5 255 -34.9 239.6 -53.6 235C-72.3 230.3 -92.2 236.5 -113.7 236.1C-135.1 235.6 -158.1 228.6 -168.6 211.4C-179.1 194.2 -177.3 166.8 -186.9 149C-196.4 131.3 -217.4 123.2 -225.2 108.5C-233.1 93.7 -227.7 72.4 -233 53.2C-238.3 34 -254.4 17 -270.4 0L0 0Z" fill="#232745"></path><path d="M0 202.8C-13.1 191.3 -26.2 179.7 -40.2 176.2C-54.2 172.7 -69.2 177.4 -85.3 177C-101.3 176.7 -118.5 171.5 -126.5 158.6C-134.4 145.7 -133 125.1 -140.1 111.8C-147.3 98.4 -163.1 92.4 -168.9 81.4C-174.8 70.3 -170.8 54.3 -174.8 39.9C-178.8 25.5 -190.8 12.7 -202.8 0L0 0Z" fill="#96446e"></path><path d="M0 135.2C-8.7 127.5 -17.5 119.8 -26.8 117.5C-36.2 115.2 -46.1 118.2 -56.8 118C-67.6 117.8 -79 114.3 -84.3 105.7C-89.6 97.1 -88.6 83.4 -93.4 74.5C-98.2 65.6 -108.7 61.6 -112.6 54.2C-116.5 46.9 -113.8 36.2 -116.5 26.6C-119.2 17 -127.2 8.5 -135.2 0L0 0Z" fill="#f17c53"></path><path d="M0 67.6C-4.4 63.8 -8.7 59.9 -13.4 58.7C-18.1 57.6 -23.1 59.1 -28.4 59C-33.8 58.9 -39.5 57.2 -42.2 52.9C-44.8 48.6 -44.3 41.7 -46.7 37.3C-49.1 32.8 -54.4 30.8 -56.3 27.1C-58.3 23.4 -56.9 18.1 -58.3 13.3C-59.6 8.5 -63.6 4.2 -67.6 0L0 0Z" fill="#fbae3c"></path></g><g transform="translate(0, 600)"><path d="M0 -270.4C21.2 -270.9 42.5 -271.3 59.6 -261.3C76.8 -251.2 89.8 -230.7 105.9 -219.8C121.9 -208.9 141 -207.6 160.9 -201.7C180.7 -195.8 201.2 -185.2 211.4 -168.6C221.7 -152 221.6 -129.2 229.7 -110.6C237.9 -92.1 254.1 -77.6 262.3 -59.9C270.4 -42.1 270.4 -21.1 270.4 0L0 0Z" fill="#232745"></path><path d="M0 -202.8C15.9 -203.1 31.9 -203.5 44.7 -196C57.6 -188.4 67.3 -173.1 79.4 -164.9C91.5 -156.7 105.8 -155.7 120.6 -151.3C135.5 -146.8 150.9 -138.9 158.6 -126.5C166.2 -114 166.2 -96.9 172.3 -83C178.4 -69 190.6 -58.2 196.7 -44.9C202.8 -31.6 202.8 -15.8 202.8 0L0 0Z" fill="#96446e"></path><path d="M0 -135.2C10.6 -135.4 21.2 -135.7 29.8 -130.6C38.4 -125.6 44.9 -115.4 52.9 -109.9C61 -104.5 70.5 -103.8 80.4 -100.9C90.3 -97.9 100.6 -92.6 105.7 -84.3C110.8 -76 110.8 -64.6 114.9 -55.3C118.9 -46 127.1 -38.8 131.1 -29.9C135.2 -21.1 135.2 -10.5 135.2 0L0 0Z" fill="#f17c53"></path><path d="M0 -67.6C5.3 -67.7 10.6 -67.8 14.9 -65.3C19.2 -62.8 22.4 -57.7 26.5 -55C30.5 -52.2 35.3 -51.9 40.2 -50.4C45.2 -48.9 50.3 -46.3 52.9 -42.2C55.4 -38 55.4 -32.3 57.4 -27.7C59.5 -23 63.5 -19.4 65.6 -15C67.6 -10.5 67.6 -5.3 67.6 0L0 0Z" fill="#fbae3c"></path></g></svg>